<?xml version="1.0" encoding="utf-8"?>
<!-- Generator: Adobe Illustrator 22.1.0, SVG Export Plug-In . SVG Version: 6.00 Build 0)  -->
<svg version="1.1" id="Layer_1" xmlns="http://www.w3.org/2000/svg" xmlns:xlink="http://www.w3.org/1999/xlink" x="0px" y="0px"
	 viewBox="0 0 4267 4267" style="enable-background:new 0 0 4267 4267;" xml:space="preserve">
<style type="text/css">
	.st0{fill:#454545;}
</style>
<path id="XMLID_163_" class="st0" d="M3892.8,2133.5c0,973.1-788.9,1762-1762,1762s-1762-788.9-1762-1762s788.9-1762,1762-1762
	S3892.8,1160.4,3892.8,2133.5z M2651.1,2846.3c0-207.8-122.7-393.5-310-476.1l7.6-476.7c182.7-84.3,302.4-268.7,302.4-472.7
	c0-286.9-233.4-520.3-520.3-520.3c-286.9,0-520.4,233.4-520.4,520.3c0,207.8,122.7,393.5,310,476.1l-7.6,476.7
	c-182.6,84.3-302.4,268.8-302.4,472.7c0,286.9,233.4,520.3,520.4,520.3C2417.7,3366.6,2651.1,3133.2,2651.1,2846.3z M2519.2,1420.7
	c0,164-103.7,311-257.9,366l-43.1,15.3l-10.4,660.4l45.9,15.3c158.8,52.9,265.6,201.1,265.6,368.6c0,214.1-174.3,388.4-388.4,388.4
	c-214.2,0-388.5-174.3-388.5-388.4c0-163.9,103.7-311,257.9-366l43.1-15.3l10.4-660.4l-45.9-15.3
	c-158.8-52.9-265.6-201.1-265.6-368.6c0-214.1,174.3-388.4,388.5-388.4C2344.9,1032.3,2519.2,1206.6,2519.2,1420.7z"/>
</svg>
